<?xml version="1.0" encoding="utf-8"?>
<!-- Generator: Adobe Illustrator 16.0.0, SVG Export Plug-In . SVG Version: 6.00 Build 0)  -->
<!DOCTYPE svg PUBLIC "-//W3C//DTD SVG 1.1//EN" "http://www.w3.org/Graphics/SVG/1.1/DTD/svg11.dtd">
<svg version="1.1" id="Layer_1" xmlns="http://www.w3.org/2000/svg" xmlns:xlink="http://www.w3.org/1999/xlink" x="0px" y="0px"
	 width="2560px" height="1080px" viewBox="0 0 2560 1080" enable-background="new 0 0 2560 1080" xml:space="preserve">
<circle fill="#D7DF6D" cx="305.197" cy="153.608" r="3.757"/>
<circle fill="#D7DF6D" cx="653.919" cy="322.447" r="2.887"/>
<circle fill="#D7DF6D" cx="792.314" cy="240.638" r="3.757"/>
<circle fill="#D7DF6D" cx="392.057" cy="429.894" r="5.805"/>
<circle fill="#D7DF6D" cx="854.767" cy="422.127" r="5.028"/>
<circle fill="#D7DF6D" cx="1426.058" cy="566.736" r="6.169"/>
<circle fill="#D7DF6D" cx="1114.247" cy="629.955" r="4.234"/>
<circle fill="#D7DF6D" cx="456.8" cy="631.226" r="4.551"/>
<circle fill="#D7DF6D" cx="1166.113" cy="83.089" r="3.315"/>
<circle fill="#D7DF6D" cx="770.464" cy="682.95" r="4.39"/>
<circle fill="#D7DF6D" cx="86.702" cy="662.891" r="4.075"/>
<circle fill="#D7DF6D" cx="92.264" cy="70.013" r="5.879"/>
<circle fill="#D7DF6D" cx="1380.789" cy="302.346" r="3.757"/>
<circle fill="#D7DF6D" cx="1513.49" cy="134.272" r="5.622"/>
<circle fill="#D7DF6D" cx="1619.213" cy="468.43" r="3.757"/>
<circle fill="#D7DF6D" cx="536.391" cy="45.159" r="4.551"/>
<circle fill="#D7DF6D" cx="1776.376" cy="1000.41" r="4.233"/>
<circle fill="#D7DF6D" cx="2433.822" cy="999.14" r="4.551"/>
<circle fill="#D7DF6D" cx="2120.159" cy="947.415" r="4.39"/>
<circle fill="#D7DF6D" cx="220.346" cy="962.899" r="6.169"/>
<circle fill="#D7DF6D" cx="532.157" cy="899.681" r="4.234"/>
<circle fill="#D7DF6D" cx="27.191" cy="1061.206" r="3.757"/>
<circle fill="#D7DF6D" cx="2522.028" cy="285.454" r="3.757"/>
<circle fill="#D7DF6D" cx="2438.434" cy="498.387" r="5.879"/>
<circle fill="#D7DF6D" cx="2413.579" cy="54.261" r="4.551"/>
<circle fill="#D7DF6D" cx="735.157" cy="1030.093" r="2.887"/>
<circle fill="#D7DF6D" cx="775.169" cy="874.384" r="3.757"/>
<circle fill="#D7DF6D" cx="947.663" cy="958.556" r="5.028"/>
<circle fill="#D7DF6D" cx="1943.715" cy="340.132" r="6.17"/>
<circle fill="#D7DF6D" cx="1800.007" cy="84.009" r="4.234"/>
<circle fill="#D7DF6D" cx="2302.371" cy="253.456" r="3.758"/>
<circle fill="#D7DF6D" cx="1973.617" cy="712.24" r="2.887"/>
<circle fill="#D7DF6D" cx="2112.013" cy="630.431" r="3.757"/>
<circle fill="#D7DF6D" cx="1682.07" cy="730.58" r="4.551"/>
<circle fill="#D7DF6D" cx="1365.244" cy="851.731" r="3.757"/>
<circle fill="#D7DF6D" cx="1092.6" cy="267.103" r="3.757"/>
</svg>
